<svg width="874" height="659" viewBox="0 0 874 659" fill="none" xmlns="http://www.w3.org/2000/svg">
<g clip-path="url(#clip0)" filter="url(#filter0_d)">
<path d="M410 630.671C410 640.612 319 641.671 207 648.671C95.1045 655.664 4 640.612 4 630.671C4 620.729 95.5242 600.727 207 612.671C319 624.671 410 620.729 410 630.671Z" fill="#E6E6E6"/>
<path d="M838.043 0.00108443H597.428C585.817 0.00107181 574.551 3.95143 565.483 11.2028C556.415 18.4542 550.083 28.575 547.53 39.9017L425.952 579.169C424.626 585.051 424.602 591.152 425.883 597.044C427.164 602.936 429.719 608.476 433.367 613.277C437.016 618.077 441.67 622.021 447.004 624.833C452.339 627.644 458.223 629.255 464.245 629.551L711.6 641.738C724.845 642.391 737.875 638.202 748.259 629.954C758.642 621.705 765.67 609.96 768.03 596.911L836.997 215.643L842.128 217.109L855.324 144.844L850.042 143.524L869.293 37.0984C870.118 32.54 869.927 27.8558 868.733 23.3798C867.54 18.9038 865.374 14.7461 862.389 11.2032C859.405 7.66033 855.676 4.81948 851.467 2.88316C847.259 0.946854 842.675 -0.0372202 838.043 0.00108443Z" fill="#114551"/>
<path d="M629.104 11.6263H601.017C592.951 11.6263 585.128 14.3849 578.846 19.4442C572.563 24.5034 568.201 31.5591 566.481 39.4397L449.783 574.307C449.111 577.387 449.111 580.575 449.785 583.654C450.458 586.733 451.788 589.631 453.683 592.149C455.579 594.667 457.996 596.747 460.768 598.245C463.541 599.744 466.605 600.627 469.75 600.833L716.304 616.992C723.26 617.447 730.14 615.326 735.631 611.033C741.123 606.739 744.841 600.574 746.077 593.714L845.656 40.8764C846.301 37.2982 846.152 33.6222 845.221 30.1077C844.29 26.5932 842.598 23.326 840.267 20.5365C837.935 17.7471 835.019 15.5034 831.725 13.9638C828.431 12.4242 824.84 11.6263 821.204 11.6263H794.559C791.98 11.6263 789.473 12.4764 787.427 14.0451C785.38 15.6138 783.907 17.8135 783.237 20.3037V20.3037C782.645 22.5021 781.345 24.444 779.538 25.8289C777.731 27.2138 775.517 27.9643 773.241 27.9643H646.747C642.289 27.9643 637.995 26.2815 634.724 23.2525C631.453 20.2234 629.446 16.0713 629.104 11.6263V11.6263Z" fill="white"/>
<path d="M365.189 286.745L386.928 329.782L451.929 359.332C458.87 371.063 480.928 371.961 482.532 364.375C484.332 355.864 455.747 342.166 455.747 342.166L401.379 305.393L396.622 273.736L365.189 286.745Z" fill="#A0616A"/>
<path d="M367.753 575.559L363.744 607.632L386.997 609.236L389.402 575.559H367.753Z" fill="#A0616A"/>
<path d="M370.961 602.821C368.882 600.623 366.964 598.278 365.223 595.804C361.89 591.193 358.933 614.848 358.933 614.848C358.933 614.848 355.726 624.47 356.528 629.281C357.33 634.092 375.772 634.092 378.979 633.29C382.186 632.488 398.223 633.29 398.223 633.29H422.277C443.125 623.668 422.277 617.254 422.277 617.254C415.863 616.452 394.214 596.406 394.214 596.406L389.403 587.586C386.195 586.785 382.988 598.812 382.988 598.812L370.961 602.821Z" fill="#114551"/>
<path d="M307.617 575.96L303.607 608.033L326.86 609.637L329.266 575.96H307.617Z" fill="#A0616A"/>
<path d="M310.824 603.222C308.745 601.024 306.828 598.679 305.086 596.205C301.754 591.593 298.797 615.249 298.797 615.249C298.797 615.249 295.59 624.069 296.391 628.88C297.193 633.691 315.635 633.691 318.842 632.889C322.05 632.088 338.086 633.691 338.086 633.691H362.141C382.988 624.069 362.141 617.655 362.141 617.655C355.726 616.853 334.077 596.807 334.077 596.807L329.266 587.987C326.059 587.186 322.851 599.213 322.851 599.213L310.824 603.222Z" fill="#114551"/>
<path d="M334.077 369.09C330.87 373.099 332.473 386.73 332.473 386.73C332.473 386.73 326.861 430.831 329.266 434.84C331.671 438.849 327.662 442.056 325.257 447.669C322.851 453.282 320.446 466.913 320.446 466.913C306.815 478.138 307.617 529.455 307.617 529.455L302.806 575.158C304.41 579.969 326.861 580.771 330.068 579.969C333.275 579.168 342.897 507.004 342.897 507.004L364.546 466.111C364.546 466.111 362.943 575.158 362.943 579.969C362.943 584.78 384.592 582.375 389.403 582.375C394.214 582.375 394.214 502.193 394.214 502.193L399.024 481.345L424.683 385.929V374.703L420.674 369.09C420.674 369.09 337.284 365.081 334.077 369.09Z" fill="#114551"/>
<path d="M369.357 187.077C383.085 187.077 394.214 175.948 394.214 162.22C394.214 148.492 383.085 137.364 369.357 137.364C355.629 137.364 344.501 148.492 344.501 162.22C344.501 175.948 355.629 187.077 369.357 187.077Z" fill="#A0616A"/>
<path d="M381.785 173.847C376.747 185.066 379.73 200.737 389.804 217.947L348.911 198.703L355.325 193.09L353.722 177.054L381.785 173.847Z" fill="#A0616A"/>
<path d="M381.785 199.505C387.14 202.689 390.344 208.538 392.182 214.49C395.587 225.51 397.636 236.904 398.285 248.419L400.227 282.894L424.282 374.302C403.435 391.942 391.407 387.933 363.343 373.5C335.28 359.067 332.072 378.311 332.072 378.311C332.072 378.311 329.667 377.509 332.072 375.104C334.478 372.698 332.072 375.104 329.667 372.698C327.262 370.293 329.667 372.698 330.469 370.293C331.271 367.887 330.469 369.491 329.667 368.689C328.865 367.887 332.874 360.671 332.874 360.671L326.46 300.534L318.441 215.541C328.063 203.514 355.325 193.09 355.325 193.09L380.182 210.73C388.2 213.938 381.785 201.109 381.785 201.109L381.785 199.505Z" fill="#36D29B"/>
<path d="M305.211 266.457L302.004 314.566L342.897 373.099C342.897 386.73 350.113 389.938 350.113 389.938C352.847 385.575 355.259 381.019 357.33 376.307C361.339 367.487 354.924 360.27 354.924 360.27L326.861 300.935L338.888 271.268L305.211 266.457Z" fill="#A0616A"/>
<path d="M318.842 215.942C305.211 220.753 302.806 272.872 302.806 272.872C318.842 264.052 338.086 278.484 338.086 278.484C338.086 278.484 342.095 264.853 346.906 247.213C348.359 242.251 348.532 237.003 347.411 231.956C346.289 226.909 343.909 222.227 340.492 218.348C340.492 218.348 332.473 211.131 318.842 215.942Z" fill="#36D29B"/>
<path d="M346.505 169.838C349.67 167.306 353.986 171.908 353.986 171.908L356.518 149.124C356.518 149.124 372.34 151.023 382.466 148.491C392.591 145.96 394.174 157.668 394.174 157.668C394.696 152.94 394.801 148.175 394.49 143.428C393.857 137.733 385.63 132.037 371.074 128.24C356.518 124.442 348.923 140.897 348.923 140.897C338.798 145.96 343.341 172.369 346.505 169.838Z" fill="#2F2E41"/>
<path d="M769.023 385.545C769.506 385.563 769.98 385.408 770.358 385.107C770.737 384.807 770.996 384.381 771.088 383.907L826.373 82.9904C826.426 82.704 826.415 82.4095 826.342 82.1275C826.269 81.8456 826.135 81.583 825.95 81.3581C825.765 81.1332 825.533 80.9515 825.271 80.8256C825.008 80.6996 824.721 80.6326 824.43 80.6291L572.904 77.6989H572.881C572.427 77.7006 571.987 77.8559 571.632 78.1397C571.278 78.4234 571.03 78.8188 570.929 79.2614L505.755 370.411C505.691 370.695 505.691 370.99 505.753 371.275C505.815 371.56 505.939 371.827 506.116 372.059C506.292 372.291 506.517 372.481 506.775 372.617C507.033 372.753 507.318 372.83 507.609 372.844L769.023 385.545Z" fill="#E6E6E6"/>
<path d="M550.13 404.766C549.905 404.766 549.686 404.843 549.509 404.983C549.332 405.124 549.209 405.32 549.158 405.54L546.835 415.496C546.802 415.637 546.8 415.783 546.829 415.925C546.859 416.066 546.918 416.2 547.004 416.316C547.09 416.433 547.2 416.529 547.327 416.599C547.453 416.669 547.594 416.71 547.738 416.72L678.968 426.048C679.211 426.063 679.452 425.99 679.645 425.842C679.839 425.693 679.972 425.48 680.021 425.241L682.254 413.722C682.282 413.583 682.279 413.439 682.246 413.3C682.213 413.161 682.151 413.031 682.063 412.919C681.976 412.806 681.866 412.714 681.74 412.647C681.613 412.581 681.475 412.542 681.333 412.534L550.191 404.768C550.171 404.767 550.15 404.766 550.13 404.766Z" fill="#E6E6E6"/>
<path d="M709.566 463.04C709.803 463.058 710.038 462.992 710.23 462.853C710.423 462.714 710.56 462.512 710.617 462.282L713.461 450.739C713.496 450.597 713.499 450.45 713.471 450.307C713.443 450.163 713.383 450.028 713.298 449.91C713.212 449.793 713.101 449.695 712.973 449.624C712.846 449.554 712.704 449.512 712.559 449.502L544.973 437.781C544.745 437.763 544.519 437.824 544.331 437.954C544.144 438.084 544.007 438.275 543.944 438.494L540.989 448.468C540.946 448.611 540.936 448.761 540.959 448.908C540.983 449.056 541.038 449.195 541.122 449.318C541.207 449.441 541.317 449.543 541.446 449.618C541.575 449.692 541.719 449.737 541.867 449.749L709.566 463.04Z" fill="#E6E6E6"/>
<path d="M700.566 500.04C700.803 500.059 701.039 499.993 701.231 499.854C701.424 499.715 701.56 499.512 701.617 499.282L704.461 487.739C704.496 487.597 704.499 487.45 704.471 487.307C704.443 487.164 704.383 487.028 704.298 486.91C704.212 486.793 704.101 486.695 703.973 486.624C703.846 486.554 703.704 486.512 703.559 486.502L535.973 474.781C535.745 474.763 535.519 474.824 535.331 474.954C535.144 475.084 535.007 475.275 534.944 475.494L531.989 485.468C531.946 485.611 531.936 485.761 531.959 485.908C531.983 486.056 532.038 486.195 532.122 486.318C532.207 486.441 532.317 486.543 532.446 486.618C532.575 486.692 532.719 486.737 532.867 486.749L700.566 500.04Z" fill="#E6E6E6"/>
<path d="M623.382 563.514C623.621 563.539 623.861 563.477 624.057 563.338C624.252 563.199 624.391 562.994 624.447 562.761L630.459 538.71C630.495 538.569 630.499 538.422 630.472 538.28C630.445 538.138 630.387 538.003 630.303 537.885C630.219 537.767 630.11 537.669 629.984 537.597C629.858 537.525 629.718 537.482 629.573 537.469L526.657 528.813C526.417 528.797 526.179 528.866 525.985 529.009C525.79 529.151 525.653 529.358 525.597 529.593L520.468 552.675C520.437 552.814 520.436 552.957 520.465 553.096C520.494 553.235 520.552 553.366 520.636 553.481C520.719 553.596 520.826 553.691 520.949 553.761C521.073 553.832 521.209 553.875 521.351 553.888L623.382 563.514Z" fill="#227183"/>
</g>
<defs>
<filter id="filter0_d" x="0" y="0" width="873.802" height="658.463" filterUnits="userSpaceOnUse" color-interpolation-filters="sRGB">
<feFlood flood-opacity="0" result="BackgroundImageFix"/>
<feColorMatrix in="SourceAlpha" type="matrix" values="0 0 0 0 0 0 0 0 0 0 0 0 0 0 0 0 0 0 127 0"/>
<feOffset dy="4"/>
<feGaussianBlur stdDeviation="2"/>
<feColorMatrix type="matrix" values="0 0 0 0 0 0 0 0 0 0 0 0 0 0 0 0 0 0 0.25 0"/>
<feBlend mode="normal" in2="BackgroundImageFix" result="effect1_dropShadow"/>
<feBlend mode="normal" in="SourceGraphic" in2="effect1_dropShadow" result="shape"/>
</filter>
<clipPath id="clip0">
<rect width="865.802" height="650.463" fill="white" transform="translate(4)"/>
</clipPath>
</defs>
</svg>
